<?xml version="1.0" standalone="no"?>
<!DOCTYPE svg PUBLIC "-//W3C//DTD SVG 1.1//EN" "http://www.w3.org/Graphics/SVG/1.1/DTD/svg11.dtd" >
<svg xmlns="http://www.w3.org/2000/svg">
<metadata></metadata>
<defs>
<font id="gotham-mdregular" horiz-adv-x="1372" >
<font-face units-per-em="2048" ascent="1638" descent="-410" />
<missing-glyph horiz-adv-x="614" />
<glyph unicode="&#xfb01;" horiz-adv-x="1355" d="M74 868v207h137v78q0 180 88 268q86 86 244 86q104 0 200 -28v-209q-80 27 -145 26q-143 0 -143 -163v-60h286v-205h-282v-868h-248v868h-137zM930 1247v236h266v-236h-266zM940 0v1081h248v-1081h-248z" />
<glyph unicode="&#xfb02;" horiz-adv-x="1355" d="M74 868v207h137v78q0 180 88 268q86 86 244 86q104 0 200 -28v-209q-80 27 -145 26q-143 0 -143 -163v-60h286v-205h-282v-868h-248v868h-137zM940 0v1495h248v-1495h-248z" />
<glyph unicode="&#xfb03;" horiz-adv-x="2125" d="M74 868v207h137v78q0 180 88 268q86 86 244 86q104 0 200 -28v-209q-80 27 -145 26q-143 0 -143 -163v-60h286v-205h-282v-868h-248v868h-137zM844 868v207h137v78q0 180 88 268q86 86 242 86q106 0 202 -28v-209q-80 27 -145 26q-143 0 -143 -163v-60h286v-205h-282 v-868h-248v868h-137zM1700 1247v236h266v-236h-266zM1708 0v1081h250v-1081h-250z" />
<glyph unicode="&#xfb04;" horiz-adv-x="2125" d="M74 868v207h137v78q0 180 88 268q86 86 244 86q104 0 200 -28v-209q-80 27 -145 26q-143 0 -143 -163v-60h286v-205h-282v-868h-248v868h-137zM844 868v207h137v78q0 180 88 268q86 86 242 86q106 0 202 -28v-209q-80 27 -145 26q-143 0 -143 -163v-60h286v-205h-282 v-868h-248v868h-137zM1708 0v1495h250v-1495h-250z" />
<glyph horiz-adv-x="2048" />
<glyph horiz-adv-x="2048" />
<glyph unicode="&#xd;" horiz-adv-x="2048" />
<glyph unicode=" "  horiz-adv-x="614" />
<glyph unicode="&#x09;" horiz-adv-x="614" />
<glyph unicode="&#xa0;" horiz-adv-x="614" />
<glyph unicode="!" horiz-adv-x="618" d="M164 1362v72h291v-72l-76 -909h-137zM174 0v281h272v-281h-272z" />
<glyph unicode="&#x22;" horiz-adv-x="997" d="M123 821l47 613h281v-11l-199 -602h-129zM571 821l50 613h280v-11l-201 -602h-129z" />
<glyph unicode="#" horiz-adv-x="1433" d="M80 330v213h221l59 356h-204v213h241l56 322h219l-56 -322h336l54 322h219l-56 -322h183v-213h-219l-60 -356h205v-213h-242l-57 -330h-219l57 330h-336l-55 -330h-219l57 330h-184zM518 543h336l61 356h-335z" />
<glyph unicode="$" horiz-adv-x="1314" d="M100 207l131 186q184 -150 361 -176v401q-229 59 -332 154q-106 98 -106 266v4q0 164 118 271q117 104 312 121v118h178v-122q211 -27 385 -156l-115 -193q-133 100 -278 131v-389q233 -59 340 -157q104 -100 104 -265v-4q0 -166 -121 -272q-119 -106 -315 -123v-203 h-178v205q-266 31 -484 203zM395 1053q0 -127 197 -187v361q-197 -16 -197 -170v-4zM754 209q203 16 202 174v4q0 133 -202 193v-371z" />
<glyph unicode="%" horiz-adv-x="1738" d="M98 1079v4q0 152 95 258q96 109 245 109q147 0 244 -107q92 -104 92 -256v-4q0 -152 -94 -258q-96 -109 -246 -108q-148 -1 -244 108q-92 102 -92 254zM244 0l1048 1434h203l-1049 -1434h-202zM281 1083q0 -88 45 -147q45 -61 112 -62q70 1 113 62q41 57 41 143v4 q0 88 -45 148q-45 61 -113 61q-70 0 -112 -61q-41 -57 -41 -144v-4zM965 346v4q0 152 94 258q96 109 246 109q147 0 243 -107q92 -104 92 -256v-4q0 -152 -94 -258q-96 -109 -246 -108q-147 -1 -243 108q-92 102 -92 254zM1147 350q0 -88 45 -147q45 -61 113 -62 q69 1 112 62q41 57 41 143v4q0 88 -45 148q-45 61 -113 61q-70 0 -112 -61q-41 -57 -41 -144v-4z" />
<glyph unicode="&#x26;" horiz-adv-x="1425" d="M80 389v4q0 270 305 402q-119 152 -119 299v4q0 150 111 252q115 109 301 108q168 0 276 -100q104 -98 105 -246v-4q0 -254 -316 -373l246 -250q78 117 154 277l190 -100q-98 -197 -194 -328l225 -230l-186 -133l-191 195q-199 -186 -440 -186q-203 0 -334 112 q-133 113 -133 297zM334 397q0 -90 67 -149q68 -59 172 -60q140 0 271 125l-320 326q-190 -82 -190 -238v-4zM502 1083q0 -94 108 -213q226 83 226 224v4q0 72 -45 116q-47 45 -119 46q-76 0 -123 -50q-47 -47 -47 -123v-4z" />
<glyph unicode="'" horiz-adv-x="550" d="M123 821l47 613h285v-11l-201 -602h-131z" />
<glyph unicode="(" horiz-adv-x="901" d="M129 588q0 565 567 876l109 -166q-428 -283 -428 -710q0 -428 428 -711l-109 -166q-567 311 -567 877z" />
<glyph unicode=")" horiz-adv-x="901" d="M98 -123q428 283 428 711t-428 710l109 166q567 -313 567 -876t-567 -877z" />
<glyph unicode="*" horiz-adv-x="880" d="M119 1008l233 102l-233 102l74 125l204 -149l-28 250h143l-29 -250l205 149l74 -125l-234 -102l234 -102l-74 -125l-205 149l29 -250h-143l28 250l-204 -149z" />
<glyph unicode="+" horiz-adv-x="1298" d="M139 608v228h393v389h234v-389h393v-228h-393v-391h-234v391h-393z" />
<glyph unicode="," horiz-adv-x="550" d="M70 -193q188 37 174 193h-105v281h273v-238q0 -315 -316 -340z" />
<glyph unicode="-" horiz-adv-x="835" d="M115 506v244h606v-244h-606z" />
<glyph unicode="." horiz-adv-x="550" d="M139 0v281h273v-281h-273z" />
<glyph unicode="/" horiz-adv-x="1067" d="M-51 -262l925 1896h216l-926 -1896h-215z" />
<glyph unicode="0" horiz-adv-x="1482" d="M117 713v4q0 313 172 524q178 217 454 217t453 -215q170 -209 170 -522v-4q0 -313 -172 -524q-178 -217 -455 -218q-276 0 -452 215q-170 209 -170 523zM377 717q0 -217 100 -363q102 -152 266 -151q165 -1 265 149q98 143 98 361v4q0 217 -100 362q-104 152 -267 152 q-162 0 -264 -148q-98 -143 -98 -362v-4z" />
<glyph unicode="1" horiz-adv-x="811" d="M53 1321l385 123h176v-1444h-249v1188l-259 -72z" />
<glyph unicode="2" horiz-adv-x="1255" d="M100 0v199l494 419q268 227 268 388q0 102 -65 163q-66 59 -166 60q-166 0 -332 -215l-178 139q215 301 528 301q211 0 342 -119q131 -117 131 -309v-4q0 -160 -90 -285q-74 -100 -282 -270l-295 -246h682v-221h-1037z" />
<glyph unicode="3" horiz-adv-x="1265" d="M88 227l176 164q160 -188 377 -188q106 0 176 59q72 61 72 158v4q0 104 -90 164q-88 57 -240 57h-117l-41 158l387 411h-620v220h948v-189l-399 -409q422 -55 422 -404v-4q0 -199 -140 -326q-141 -127 -362 -127q-342 0 -549 252z" />
<glyph unicode="4" horiz-adv-x="1394" d="M74 502l796 942h215v-916h205v-206h-205v-322h-241v322h-723zM373 528h471v568z" />
<glyph unicode="5" horiz-adv-x="1273" d="M96 195l156 182q184 -172 369 -172q129 0 206 67q78 68 78 181v4q0 109 -84 174q-82 63 -213 63q-129 0 -264 -63l-151 100l40 703h857v-224h-639l-23 -336q113 41 227 41q219 0 355 -110q143 -121 143 -340v-4q0 -219 -145 -352q-147 -133 -385 -134q-302 1 -527 220z " />
<glyph unicode="6" horiz-adv-x="1343" d="M117 674v4q0 342 155 555q166 225 459 225q240 0 438 -160l-135 -194q-162 125 -311 125q-156 0 -248 -129q-86 -123 -96 -326q147 143 342 144q217 0 356 -117q145 -125 146 -334v-4q0 -211 -154 -350q-152 -137 -379 -138q-245 0 -399 150q-174 178 -174 549zM387 451 q0 -111 82 -185t215 -73q131 -1 211 75q76 72 76 185v4q0 109 -80 178q-82 72 -213 72t-213 -74q-78 -72 -78 -178v-4z" />
<glyph unicode="7" horiz-adv-x="1247" d="M139 1212v222h1008v-191l-647 -1243h-283l643 1212h-721z" />
<glyph unicode="8" horiz-adv-x="1290" d="M98 389v4q0 242 258 350q-209 111 -209 320v4q0 166 142 276q141 111 356 111t356 -111t142 -276v-4q0 -209 -209 -320q258 -119 258 -344v-4q0 -188 -156 -303q-152 -113 -391 -112q-237 -1 -391 112q-156 115 -156 297zM344 406q0 -90 80 -152q84 -63 221 -64 q137 1 221 64q80 59 80 152v4q0 96 -86 157q-86 59 -215 60q-129 0 -215 -60q-86 -61 -86 -157v-4zM389 1040q0 -94 74 -153q72 -59 182 -60q110 1 184 60q72 59 72 151v4q0 84 -70 142q-74 59 -186 59q-113 0 -186 -59q-70 -55 -70 -140v-4z" />
<glyph unicode="9" horiz-adv-x="1343" d="M121 958v5q0 213 147 352q152 143 387 143q246 0 398 -151q174 -174 174 -547v-4q0 -350 -162 -563q-168 -217 -453 -218q-251 0 -458 172l137 193q160 -135 327 -135q156 0 250 127q90 121 97 323q-127 -152 -336 -151q-229 0 -369 123q-139 125 -139 331zM373 971 q0 -113 80 -185t213 -71q133 0 213 78q78 72 77 180v4q0 115 -82 188q-82 76 -217 76q-131 0 -208 -78q-76 -74 -76 -188v-4z" />
<glyph unicode=":" horiz-adv-x="571" d="M150 0v281h272v-281h-272zM150 801v280h272v-280h-272z" />
<glyph unicode=";" horiz-adv-x="571" d="M80 -193q188 37 174 193h-104v281h272v-238q0 -315 -316 -340zM150 801v280h272v-280h-272z" />
<glyph unicode="&#x3c;" horiz-adv-x="1298" d="M137 610v221l979 453v-235l-733 -326l733 -328v-237z" />
<glyph unicode="=" horiz-adv-x="1298" d="M156 350v230h987v-230h-987zM156 862v230h987v-230h-987z" />
<glyph unicode="&#x3e;" horiz-adv-x="1298" d="M184 158v235l731 326l-731 328v237l979 -453v-221z" />
<glyph unicode="?" horiz-adv-x="1107" d="M49 1225q201 227 494 227q217 0 348 -113t131 -303v-4q0 -344 -412 -414l-20 -165h-166l-41 331l10 11q379 14 379 229v4q0 88 -61 141q-66 53 -174 54q-182 0 -334 -162zM365 0v281h274v-281h-274z" />
<glyph unicode="@" horiz-adv-x="2007" d="M109 561q0 369 260 633q262 264 637 264q371 0 634 -246q258 -242 258 -565q0 -246 -118 -383q-109 -127 -279 -127q-213 0 -303 144q-139 -143 -317 -144q-158 0 -263 105q-109 111 -108 282q0 213 143 365q139 147 322 147q190 0 289 -151l24 123l199 -31l-90 -516 q-10 -61 -11 -88q0 -145 160 -146q115 0 191 105q80 115 80 315q0 291 -232 508q-240 225 -579 225q-346 0 -582 -239q-233 -238 -234 -580q0 -344 234 -577q238 -238 598 -238q268 0 506 137l37 -61q-252 -154 -543 -154q-389 0 -653 262q-260 260 -260 631zM719 537 q0 -104 61 -164q57 -57 156 -58q113 1 197 95q86 96 86 229q0 98 -62 160q-61 61 -153 61q-115 0 -199 -92q-86 -96 -86 -231z" />
<glyph unicode="A" horiz-adv-x="1617" d="M61 0l631 1444h234l630 -1444h-266l-145 346h-678l-148 -346h-258zM559 569h494l-248 574z" />
<glyph unicode="B" horiz-adv-x="1478" d="M184 0v1434h643q248 0 375 -127q96 -96 96 -238v-4q0 -213 -204 -320q285 -96 284 -348v-4q0 -188 -145 -293q-141 -100 -385 -100h-664zM432 223h418q276 0 276 197v4q0 192 -292 192h-3h-399v-393zM432 829h344q270 0 271 195v4q0 182 -252 182h-363v-381z" />
<glyph unicode="C" horiz-adv-x="1511" d="M121 713v4q0 311 207 524q211 217 532 217q328 0 561 -223l-161 -186q-193 178 -402 178q-203 0 -340 -148q-133 -145 -133 -358v-4q0 -213 133 -361q136 -149 337 -149h3q213 0 412 186l162 -164q-244 -254 -582 -254q-311 0 -520 215q-209 211 -209 523z" />
<glyph unicode="D" horiz-adv-x="1601" d="M184 0v1434h535q334 0 551 -205q211 -203 211 -508v-4q0 -307 -211 -510q-217 -207 -551 -207h-535zM436 229h283q223 0 362 138q135 133 136 346v4q0 213 -136 348q-139 139 -362 139h-283v-975z" />
<glyph unicode="E" d="M184 0v1434h1063v-226h-811v-372h719v-226h-719v-385h821v-225h-1073z" />
<glyph unicode="F" horiz-adv-x="1343" d="M184 0v1434h1067v-230h-815v-391h723v-229h-723v-584h-252z" />
<glyph unicode="G" horiz-adv-x="1605" d="M121 713v4q0 307 207 522q213 219 532 219q322 0 551 -194l-160 -191q-180 154 -401 154q-197 0 -332 -150q-133 -147 -133 -356v-4q0 -223 133 -367q137 -145 354 -145q201 0 347 108v269h-367v219h610v-602q-260 -223 -598 -224q-331 0 -540 213q-203 207 -203 525z " />
<glyph unicode="H" horiz-adv-x="1556" d="M184 0v1434h252v-596h684v596h252v-1434h-252v604h-684v-604h-252z" />
<glyph unicode="I" horiz-adv-x="649" d="M199 0v1434h252v-1434h-252z" />
<glyph unicode="J" horiz-adv-x="1144" d="M43 211l166 170q133 -168 289 -168q227 0 227 281v940h258v-947q0 -248 -133 -381q-126 -126 -345 -126h-3q-289 0 -459 231z" />
<glyph unicode="K" horiz-adv-x="1484" d="M184 0v1434h252v-721l682 721h309l-596 -617l623 -817h-305l-490 645l-223 -229v-416h-252z" />
<glyph unicode="L" horiz-adv-x="1267" d="M184 0v1434h252v-1205h754v-229h-1006z" />
<glyph unicode="M" horiz-adv-x="1777" d="M184 0v1434h269l436 -678l436 678h268v-1434h-252v1028l-452 -676h-8l-449 672v-1024h-248z" />
<glyph unicode="N" horiz-adv-x="1617" d="M184 0v1434h234l768 -992v992h248v-1434h-211l-791 1020v-1020h-248z" />
<glyph unicode="O" horiz-adv-x="1740" d="M121 713v4q0 307 211 522q215 219 540 219q326 0 539 -217q209 -213 209 -520v-4q0 -307 -211 -522q-215 -219 -541 -220q-325 1 -538 218q-209 213 -209 520zM385 717q0 -213 137 -359q138 -151 347 -151h2.5h3.5q210 0 346 149q135 143 135 357v4q0 213 -137 360 q-139 150 -351 150q-211 0 -348 -148q-135 -145 -135 -358v-4z" />
<glyph unicode="P" horiz-adv-x="1368" d="M184 0v1434h566q250 0 397 -131t147 -349v-4q0 -231 -168 -364q-158 -125 -405 -125h-285v-461h-252zM436 688h293q141 0 225 72t84 184v4q0 123 -84 191q-81 65 -221 65h-4h-293v-516z" />
<glyph unicode="Q" horiz-adv-x="1740" d="M121 713v4q0 307 211 522q215 219 540 219q326 0 539 -217q209 -213 209 -520v-4q0 -248 -145 -441l163 -139l-161 -180l-172 154q-190 -135 -437 -136q-326 0 -538 218q-209 213 -209 520zM385 717q0 -213 137 -359q138 -151 347 -151h3h4q135 0 242 69l-246 209 l162 185l248 -226q74 115 74 269v4q0 213 -137 360q-139 150 -351 150q-211 0 -348 -148q-135 -145 -135 -358v-4z" />
<glyph unicode="R" horiz-adv-x="1480" d="M184 0v1434h639q266 0 414 -144q119 -123 119 -309v-4q0 -336 -342 -434l387 -543h-297l-352 500h-316v-500h-252zM436 723h369q135 0 215 65q80 66 80 175v4q0 237 -295 237h-2h-367v-481z" />
<glyph unicode="S" horiz-adv-x="1310" d="M88 209l152 180q215 -186 452 -186q117 0 187 49q68 49 67 131v4q0 80 -61 125q-70 49 -262 94q-250 61 -353 144q-125 98 -125 284v4q0 184 138 301q137 115 352 115q295 0 520 -180l-135 -191q-199 147 -389 148q-106 0 -172 -49q-61 -47 -62 -121v-4q0 -84 68 -129 q70 -47 272 -97q238 -57 344 -147q117 -100 117 -272v-4q0 -199 -143 -316q-138 -112 -365 -112h-4q-342 0 -598 229z" />
<glyph unicode="T" horiz-adv-x="1327" d="M82 1200v234h1163v-234h-454v-1200h-254v1200h-455z" />
<glyph unicode="U" horiz-adv-x="1550" d="M162 608v826h252v-816q0 -197 96 -305q96 -104 266 -104t264 100q96 104 97 299v826h252v-813q0 -313 -168 -482q-160 -162 -449 -162q-284 0 -444 160q-166 164 -166 471z" />
<glyph unicode="V" horiz-adv-x="1536" d="M61 1434h279l432 -1102l430 1102h273l-596 -1444h-222z" />
<glyph unicode="W" horiz-adv-x="2285" d="M74 1434h272l342 -1063l352 1067h213l353 -1067l342 1063h264l-500 -1444h-217l-352 1030l-352 -1030h-218z" />
<glyph unicode="X" horiz-adv-x="1492" d="M76 0l522 729l-502 705h297l357 -514l358 514h289l-500 -701l520 -733h-297l-377 543l-378 -543h-289z" />
<glyph unicode="Y" horiz-adv-x="1466" d="M37 1434h297l401 -635l406 635h289l-570 -863v-571h-254v565z" />
<glyph unicode="Z" horiz-adv-x="1437" d="M133 0v186l846 1024h-819v224h1147v-187l-846 -1024h846v-223h-1174z" />
<glyph unicode="[" horiz-adv-x="929" d="M180 -266v1700h629v-195h-393v-1311h393v-194h-629z" />
<glyph unicode="\" horiz-adv-x="1067" d="M-23 1634h216l925 -1896h-215z" />
<glyph unicode="]" horiz-adv-x="929" d="M121 -72h393v1311h-393v195h631v-1700h-631v194z" />
<glyph unicode="^" horiz-adv-x="1024" d="M115 1010l309 426h176l309 -426h-190l-209 270l-209 -270h-186z" />
<glyph unicode="_" horiz-adv-x="1228" d="M-4 -135h1237v-193h-1237v193z" />
<glyph unicode="`" horiz-adv-x="1024" d="M254 1454l225 100l213 -335h-186z" />
<glyph unicode="a" horiz-adv-x="1202" d="M82 311v4q0 174 125 267q117 88 313 88q158 0 299 -45v20q0 231 -266 232q-147 0 -309 -68l-68 199q201 90 412 90q475 0 475 -457v-641h-246v133q-131 -156 -350 -156q-162 0 -268 86q-117 92 -117 248zM328 324q0 -74 61 -119q57 -41 148 -41q125 0 204 63 q82 63 82 164v62q-111 43 -248 43q-248 0 -247 -168v-4z" />
<glyph unicode="b" d="M156 0v1495h247v-594q143 203 367 203q205 0 348 -146q156 -160 156 -415v-4q0 -256 -156 -416q-143 -145 -348 -146q-224 1 -367 191v-168h-247zM397 539q0 -152 95 -252q92 -94 221 -94q131 0 219 94q90 96 90 252v4q0 154 -92 252q-88 94 -217 94t-221 -96 q-94 -98 -95 -250v-4z" />
<glyph unicode="c" horiz-adv-x="1169" d="M96 535v4q0 233 160 397q162 168 401 168q262 0 433 -186l-154 -166q-129 135 -281 135q-133 0 -223 -101q-88 -100 -88 -243v-4q0 -147 90 -246q92 -102 234 -103q150 0 280 136l150 -148q-182 -203 -443 -203q-239 0 -399 164q-160 162 -160 396z" />
<glyph unicode="d" d="M100 539v4q0 258 154 415q143 145 348 146q221 0 369 -191v582h248v-1495h-248v180q-143 -203 -369 -203q-203 1 -346 146q-156 160 -156 416zM350 539q0 -154 92 -252q90 -94 220 -94q129 0 219 96q94 98 94 250v4q0 152 -94 252q-90 94 -219 94q-131 0 -220 -92 q-92 -96 -92 -254v-4z" />
<glyph unicode="e" horiz-adv-x="1236" d="M96 537v4q0 236 148 397q152 166 381 166q246 0 389 -174q129 -160 129 -408q0 -20 -4 -69h-795q20 -129 107 -203q82 -72 204 -72q160 0 293 129l146 -129q-168 -203 -443 -203q-237 0 -395 156q-160 158 -160 406zM342 616h555q-12 125 -82 203q-74 82 -192 82 q-113 0 -189 -80q-76 -78 -92 -205z" />
<glyph unicode="f" horiz-adv-x="770" d="M74 868v207h137v78q0 180 88 268q86 86 244 86q104 0 200 -28v-209q-77 26 -140 26h-5q-143 0 -143 -163v-60h286v-205h-282v-868h-248v868h-137z" />
<glyph unicode="g" d="M100 592v4q0 229 152 375q141 133 340 133q225 0 379 -184v161h248v-860q0 -270 -138 -407q-145 -145 -444 -146q-270 0 -483 129l92 187q184 -115 385 -115q342 0 342 332v84q-154 -199 -381 -199q-201 0 -340 133q-152 143 -152 373zM350 594q0 -131 90 -217 q88 -82 217 -82q132 0 224 84q94 84 94 213v4q0 131 -94 217q-92 82 -224 82q-131 0 -217 -82q-90 -84 -90 -215v-4z" />
<glyph unicode="h" horiz-adv-x="1269" d="M156 0v1495h247v-582q129 190 338 191q180 0 285 -113q100 -113 100 -303v-688h-247v614q0 264 -232 265q-109 0 -176 -72q-68 -72 -68 -197v-610h-247z" />
<glyph unicode="i" horiz-adv-x="585" d="M160 1247v236h266v-236h-266zM170 0v1081h248v-1081h-248z" />
<glyph unicode="j" horiz-adv-x="585" d="M-16 -125q37 -6 69 -6q117 0 117 131v1081h248v-1095q0 -319 -316 -320q-52 0 -118 10v199zM160 1247v236h266v-236h-266z" />
<glyph unicode="k" horiz-adv-x="1191" d="M156 0v1495h247v-893l449 479h301l-430 -440l444 -641h-286l-326 467l-152 -158v-309h-247z" />
<glyph unicode="l" horiz-adv-x="585" d="M170 0v1495h248v-1495h-248z" />
<glyph unicode="m" horiz-adv-x="1945" d="M156 0v1081h247v-163q135 186 330 186q227 0 322 -191q145 190 366 191q178 0 279 -109q100 -109 100 -305v-690h-248v614q0 264 -219 265q-104 0 -166 -70q-66 -72 -65 -199v-610h-248v616q0 262 -219 263q-104 0 -168 -72q-63 -74 -64 -199v-608h-247z" />
<glyph unicode="n" horiz-adv-x="1269" d="M156 0v1081h247v-168q129 190 338 191q180 0 285 -113q100 -113 100 -303v-688h-247v614q0 264 -232 265q-109 0 -176 -72q-68 -72 -68 -197v-610h-247z" />
<glyph unicode="o" horiz-adv-x="1345" d="M96 535v4q0 236 164 399q168 166 414 166t411 -164q164 -164 164 -397v-4q0 -233 -164 -398q-168 -166 -415 -166q-246 0 -410 164q-164 162 -164 396zM344 539q0 -143 92 -244q96 -104 238 -105q147 1 239 103q88 98 88 242v4q0 145 -92 245q-96 102 -239 103 q-145 0 -238 -101q-88 -98 -88 -243v-4z" />
<glyph unicode="p" d="M156 -328v1409h247v-180q143 203 367 203q205 0 348 -146q156 -160 156 -415v-4q0 -256 -156 -416q-143 -145 -348 -146q-223 0 -367 191v-496h-247zM397 539q0 -152 95 -252q92 -94 221 -94q131 0 219 94q90 96 90 252v4q0 154 -92 252q-88 94 -217 94t-221 -96 q-94 -98 -95 -250v-4z" />
<glyph unicode="q" d="M100 539v4q0 258 154 415q143 145 348 146q221 0 369 -191v168h248v-1409h-248v508q-143 -203 -369 -203q-203 0 -346 146q-156 160 -156 416zM350 539q0 -154 92 -252q90 -94 220 -94q129 0 219 96q94 98 94 250v4q0 152 -94 252q-90 94 -219 94q-131 0 -220 -92 q-92 -96 -92 -254v-4z" />
<glyph unicode="r" horiz-adv-x="845" d="M156 0v1081h247v-243q110 264 361 264h22v-262h-14q-168 0 -266 -107q-102 -113 -103 -321v-412h-247z" />
<glyph unicode="s" horiz-adv-x="1024" d="M68 141l110 168q176 -133 354 -133q168 0 168 117v4q0 55 -73 92q-37 18 -168 60q-156 43 -230 98q-109 80 -108 219v4q0 150 112 242q106 88 273 88q211 0 397 -123l-98 -176q-168 102 -305 102q-152 0 -152 -108v-4q0 -51 74 -91q39 -18 170 -61q336 -104 336 -315v-5 q0 -164 -117 -256q-108 -83 -281 -83h-4h-3q-251 0 -455 161z" />
<glyph unicode="t" horiz-adv-x="839" d="M70 868v213h137v297h248v-297h290v-213h-290v-530q0 -135 133 -135q80 0 153 37v-203q-98 -55 -223 -55q-311 0 -311 317v569h-137z" />
<glyph unicode="u" horiz-adv-x="1269" d="M143 393v688h248v-614q0 -264 232 -264q109 0 176 71q68 72 67 197v610h248v-1081h-248v168q-129 -190 -338 -191q-180 0 -284 113q-100 113 -101 303z" />
<glyph unicode="v" horiz-adv-x="1218" d="M53 1081h266l291 -794l293 794h260l-442 -1089h-223z" />
<glyph unicode="w" horiz-adv-x="1763" d="M66 1081h253l218 -741l239 745h211l242 -745l221 741h248l-355 -1089h-221l-241 739l-244 -739h-221z" />
<glyph unicode="x" horiz-adv-x="1187" d="M61 0l398 549l-383 532h270l250 -356l250 356h264l-383 -526l399 -555h-270l-266 379l-264 -379h-265z" />
<glyph unicode="y" horiz-adv-x="1220" d="M53 1081h264l308 -802l280 802h258l-430 -1112q-66 -166 -145 -233q-80 -70 -211 -70q-135 0 -256 66l84 184q76 -41 145 -41q98 0 154 125z" />
<glyph unicode="z" horiz-adv-x="1146" d="M106 0v170l625 709h-602v202h918v-170l-625 -708h625v-203h-941z" />
<glyph unicode="{" horiz-adv-x="997" d="M106 494v188h54q127 0 180 53q51 51 51 172l-4 148q0 168 92 258q106 102 373 151l43 -164q-176 -49 -231 -108q-47 -53 -48 -172l5 -152q0 -213 -213 -280q213 -70 213 -281l-5 -151q0 -119 48 -170q55 -61 231 -111l-43 -164q-266 49 -373 152q-92 90 -92 258l4 147 q0 121 -51 172q-53 53 -180 54h-54z" />
<glyph unicode="|" horiz-adv-x="677" d="M240 -262v1896h198v-1896h-198z" />
<glyph unicode="}" horiz-adv-x="997" d="M102 -125q176 49 232 111q47 51 47 170l-4 151q0 213 213 281q-213 70 -213 280l4 152q0 119 -47 172q-55 59 -232 108l43 164q266 -49 373 -151q92 -90 92 -258l-4 -148q0 -121 51 -172q53 -53 181 -53h53v-188h-53q-127 0 -181 -54q-51 -51 -51 -172l4 -147 q0 -168 -92 -258q-106 -102 -373 -152z" />
<glyph unicode="~" horiz-adv-x="1013" d="M121 512q70 254 229 254q61 0 162 -41q100 -41 131 -41q70 0 113 102l137 -41q-70 -256 -229 -256q-61 0 -162 41q-100 41 -131 41q-70 0 -113 -102z" />
<glyph unicode="&#xa1;" horiz-adv-x="618" d="M164 0v72l78 909h137l76 -909v-72h-291zM174 1153v281h272v-281h-272z" />
<glyph unicode="&#xa2;" horiz-adv-x="1189" d="M106 723v4q0 236 160 397q160 166 400 166h18l31 156h180l-37 -182q133 -41 242 -160l-150 -160q-72 72 -141 103l-133 -668q150 2 282 133l144 -141q-182 -207 -445 -207h-12l-35 -176h-180l41 209q-162 57 -262 200q-102 145 -103 326zM348 727q0 -221 174 -313 l129 661q-129 -2 -217 -102q-86 -100 -86 -242v-4z" />
<glyph unicode="&#xa3;" horiz-adv-x="1318" d="M129 0v160l162 49v360h-162v213h162v189q0 229 127 356q123 127 344 127q279 0 452 -229l-192 -154q-117 150 -258 150q-88 0 -150 -58q-70 -74 -69 -198v-183h510v-213h-510v-350h665v-219h-1081z" />
<glyph unicode="&#xa5;" horiz-adv-x="1404" d="M39 1434h293l375 -600l374 600h285l-475 -711h328v-182h-396v-150h396v-182h-396v-209h-241v209h-396v182h396v150h-396v182h326z" />
<glyph unicode="&#xa7;" horiz-adv-x="1294" d="M119 715v4q0 180 219 237q-113 72 -113 195v4q0 137 107 217q109 82 295 82q289 0 473 -194l-142 -140q-156 145 -329 146q-166 0 -166 -101v-4q0 -80 270 -143q242 -55 340 -121q102 -68 103 -178v-4q0 -180 -220 -238q113 -68 113 -194v-4q0 -137 -106 -218 q-109 -82 -295 -81q-289 -1 -473 194l141 139q156 -145 330 -145q166 0 165 100v4q0 84 -270 144q-240 53 -340 121q-102 68 -102 178zM342 750q0 -84 240 -144q145 -37 213 -37q69 0 112 31q45 33 45 80v4q0 84 -239 143q-145 37 -213 37q-70 0 -113 -30q-45 -33 -45 -80 v-4z" />
<glyph unicode="&#xa8;" horiz-adv-x="1024" d="M186 1219v243h252v-243h-252zM586 1219v243h252v-243h-252z" />
<glyph unicode="&#xa9;" horiz-adv-x="1699" d="M109 713v4q0 305 215 522q219 219 528 219t526 -217q213 -215 213 -520v-4q0 -305 -215 -522q-219 -219 -528 -220q-309 1 -526 218q-213 215 -213 520zM186 713q0 -276 191 -469q190 -195 471 -195q282 0 475 197q190 195 190 471v4q0 276 -188 469q-193 195 -473 194 q-283 0 -475 -196q-190 -195 -191 -471v-4zM465 723v4q0 168 113 283q113 119 284 118q180 0 305 -120l-96 -111q-102 92 -209 92q-102 0 -172 -76t-69 -184v-4q0 -106 69 -182q70 -78 172 -78q111 0 213 96l99 -96q-133 -139 -316 -139q-167 -1 -280 116q-113 113 -113 281 z" />
<glyph unicode="&#xaa;" horiz-adv-x="798" d="M109 578v118h553v-118h-553zM115 1010v4q0 190 245 190q74 0 156 -22v10q0 125 -143 125q-72 0 -170 -39l-39 111q109 51 227 51q135 0 199 -68q63 -61 63 -182v-352h-139v69q-72 -82 -188 -82q-91 0 -148 47q-63 51 -63 138zM256 1016q0 -86 106 -86q66 0 111 35 q43 35 43 88v37q-63 23 -129 22q-131 0 -131 -92v-4z" />
<glyph unicode="&#xab;" horiz-adv-x="1241" d="M90 532v17l340 450l188 -96l-270 -360l270 -363l-188 -96zM606 532v17l338 450l189 -96l-271 -360l271 -363l-189 -96z" />
<glyph unicode="&#xad;" horiz-adv-x="835" d="M115 506v244h606v-244h-606z" />
<glyph unicode="&#xae;" horiz-adv-x="782" d="M35 1094v2q0 147 104 252q104 106 252 106q150 0 254 -104q102 -104 103 -252v-2q0 -147 -105 -252q-104 -106 -252 -107q-150 1 -254 105q-102 104 -102 252zM76 1094q0 -131 90 -224q92 -94 225 -94t225 94q90 94 91 226v2q0 131 -91 223q-92 94 -225 94t-225 -94 q-90 -94 -90 -225v-2zM244 918v370h174q150 0 149 -123q0 -88 -82 -114l95 -133h-109l-80 116h-57v-116h-90zM334 1108h78q63 0 63 51t-63 51h-78v-102z" />
<glyph unicode="&#xaf;" horiz-adv-x="1024" d="M164 1241v180h696v-180h-696z" />
<glyph unicode="&#xb0;" horiz-adv-x="964" d="M141 1112v4q0 133 103 232q102 98 237 98t240 -98q102 -98 102 -232v-4q0 -133 -102 -233q-104 -98 -240 -99q-135 1 -237 99q-102 100 -103 233zM289 1112q0 -80 55 -137q55 -59 137 -60q83 1 140 60q55 57 55 137v4q0 80 -55 137t-140 58q-82 0 -137 -58 q-55 -57 -55 -137v-4z" />
<glyph unicode="&#xb1;" horiz-adv-x="1298" d="M154 0v211h993v-211h-993zM154 764v219l385 -2l-2 379h225l-2 -379l387 2v-219h-387l2 -377h-225l2 377h-385z" />
<glyph unicode="&#xb4;" horiz-adv-x="1024" d="M332 1219l213 335l225 -100l-252 -235h-186z" />
<glyph unicode="&#xb6;" horiz-adv-x="1140" d="M82 965v4q0 215 156 342q150 123 399 123h326v-1434h-254v500h-37q-262 0 -420 118q-170 125 -170 347z" />
<glyph unicode="&#xb7;" horiz-adv-x="550" d="M139 487v281h273v-281h-273z" />
<glyph unicode="&#xb8;" horiz-adv-x="1024" d="M268 -248l193 283h184l-160 -375z" />
<glyph unicode="&#xba;" horiz-adv-x="798" d="M90 1130v5q0 129 88 219q90 90 223 90q131 0 220 -90q88 -88 88 -217v-4q0 -129 -88 -220q-90 -90 -224 -90q-131 0 -219 90q-88 88 -88 217zM104 578v118h590v-118h-590zM233 1133q0 -76 48 -127q49 -55 120 -56q74 1 119 54q45 51 45 126v5q0 76 -47 129 q-49 53 -121 53q-74 0 -118 -53q-45 -51 -46 -127v-4z" />
<glyph unicode="&#xbb;" horiz-adv-x="1241" d="M109 178l270 361l-270 362l188 98l338 -450v-17l-338 -448zM623 178l270 361l-270 362l188 98l340 -450v-17l-340 -448z" />
<glyph unicode="&#xbf;" horiz-adv-x="1107" d="M86 397v4q0 344 412 414l20 166h166l41 -332l-10 -10q-379 -14 -379 -229v-4q0 -88 63 -140q63 -55 172 -55q182 0 334 162l154 -164q-201 -227 -494 -227q-217 -1 -346 112q-133 113 -133 303zM469 1153v281h274v-281h-274z" />
<glyph unicode="&#xc0;" horiz-adv-x="1617" d="M61 0l631 1444h234l630 -1444h-266l-145 346h-678l-148 -346h-258zM455 1772l223 98l231 -297h-194zM559 569h494l-248 574z" />
<glyph unicode="&#xc1;" horiz-adv-x="1617" d="M61 0l631 1444h234l630 -1444h-266l-145 346h-678l-148 -346h-258zM559 569h494l-248 574zM707 1573l229 297l225 -98l-262 -199h-192z" />
<glyph unicode="&#xc2;" horiz-adv-x="1617" d="M61 0l631 1444h234l630 -1444h-266l-145 346h-678l-148 -346h-258zM444 1565l248 276h234l248 -276h-209l-158 118l-158 -118h-205zM559 569h494l-248 574z" />
<glyph unicode="&#xc3;" horiz-adv-x="1617" d="M61 0l631 1444h234l630 -1444h-266l-145 346h-678l-148 -346h-258zM426 1595q68 252 229 252q61 0 166 -39q104 -41 135 -41q70 0 113 99l139 -41q-72 -252 -229 -252q-61 0 -166 41q-104 39 -135 39q-70 0 -115 -101zM559 569h494l-248 574z" />
<glyph unicode="&#xc4;" horiz-adv-x="1617" d="M61 0l631 1444h234l630 -1444h-266l-145 346h-678l-148 -346h-258zM471 1573v229h256v-229h-256zM559 569h494l-248 574zM893 1573v229h254v-229h-254z" />
<glyph unicode="&#xc5;" horiz-adv-x="1617" d="M61 0l592 1358q-88 63 -88 168q0 94 74 155q70 61 170 62q100 0 172 -62q72 -61 72 -155q0 -104 -90 -168l593 -1358h-266l-145 346h-678l-148 -346h-258zM559 569h494l-248 574zM678 1526q0 -49 37 -84t94 -35t96 35q37 35 37 84q0 51 -37 84q-39 35 -96 35t-94 -35 q-37 -33 -37 -84z" />
<glyph unicode="&#xc6;" horiz-adv-x="2140" d="M25 0l800 1434h1190v-226h-766v-372h674v-226h-674v-385h776v-225h-1028v346h-522l-190 -346h-260zM596 569h401v645h-41z" />
<glyph unicode="&#xc7;" horiz-adv-x="1511" d="M121 713v4q0 311 207 524q211 217 532 217q328 0 561 -223l-161 -186q-193 178 -402 178q-203 0 -340 -148q-133 -145 -133 -358v-4q0 -213 133 -361q137 -150 340 -149q213 0 412 186l162 -164q-229 -240 -537 -252l-135 -317l-217 92l159 238q-256 47 -419 250 q-162 201 -162 473z" />
<glyph unicode="&#xc8;" d="M184 0v1434h1063v-226h-811v-372h719v-226h-719v-385h821v-225h-1073zM367 1751l223 98l231 -297h-194z" />
<glyph unicode="&#xc9;" d="M184 0v1434h1063v-226h-811v-372h719v-226h-719v-385h821v-225h-1073zM618 1552l230 297l225 -98l-262 -199h-193z" />
<glyph unicode="&#xca;" d="M184 0v1434h1063v-226h-811v-372h719v-226h-719v-385h821v-225h-1073zM354 1552l248 277h234l247 -277h-209l-157 119l-158 -119h-205z" />
<glyph unicode="&#xcb;" d="M184 0v1434h1063v-226h-811v-372h719v-226h-719v-385h821v-225h-1073zM381 1552v230h256v-230h-256zM803 1552v230h254v-230h-254z" />
<glyph unicode="&#xcc;" horiz-adv-x="649" d="M-27 1751l224 98l231 -297h-195zM199 0v1434h252v-1434h-252z" />
<glyph unicode="&#xcd;" horiz-adv-x="649" d="M199 0v1434h252v-1434h-252zM225 1552l230 297l225 -98l-262 -199h-193z" />
<glyph unicode="&#xce;" horiz-adv-x="649" d="M-39 1552l248 277h233l248 -277h-209l-157 119l-158 -119h-205zM199 0v1434h252v-1434h-252z" />
<glyph unicode="&#xcf;" horiz-adv-x="649" d="M-12 1552v230h256v-230h-256zM199 0v1434h252v-1434h-252zM410 1552v230h254v-230h-254z" />
<glyph unicode="&#xd0;" horiz-adv-x="1662" d="M92 608v226h154v600h534q334 0 551 -205q211 -203 211 -508v-4q0 -307 -211 -510q-217 -207 -551 -207h-534v608h-154zM498 229h282q223 0 363 138q135 133 135 346v4q0 213 -135 348q-139 139 -363 139h-282v-370h358v-226h-358v-379z" />
<glyph unicode="&#xd1;" horiz-adv-x="1617" d="M184 0v1434h234l768 -992v992h248v-1434h-211l-791 1020v-1020h-248zM426 1573q68 252 229 252q61 0 166 -39q104 -41 135 -41q70 0 113 98l139 -41q-72 -252 -229 -252q-61 0 -166 41q-104 39 -135 39q-70 0 -115 -100z" />
<glyph unicode="&#xd2;" horiz-adv-x="1740" d="M121 713v4q0 307 211 522q215 219 540 219q326 0 539 -217q209 -213 209 -520v-4q0 -307 -211 -522q-215 -219 -541 -220q-325 1 -538 218q-209 213 -209 520zM385 717q0 -213 137 -359q139 -152 350 -151q212 -1 349 149q135 143 135 357v4q0 213 -137 360 q-139 150 -351 150q-211 0 -348 -148q-135 -145 -135 -358v-4zM516 1772l223 98l232 -297h-195z" />
<glyph unicode="&#xd3;" horiz-adv-x="1740" d="M121 713v4q0 307 211 522q215 219 540 219q326 0 539 -217q209 -213 209 -520v-4q0 -307 -211 -522q-215 -219 -541 -220q-325 1 -538 218q-209 213 -209 520zM385 717q0 -213 137 -359q139 -152 350 -151q212 -1 349 149q135 143 135 357v4q0 213 -137 360 q-139 150 -351 150q-211 0 -348 -148q-135 -145 -135 -358v-4zM768 1573l229 297l226 -98l-262 -199h-193z" />
<glyph unicode="&#xd4;" horiz-adv-x="1740" d="M121 713v4q0 307 211 522q215 219 540 219q326 0 539 -217q209 -213 209 -520v-4q0 -307 -211 -522q-215 -219 -541 -220q-325 1 -538 218q-209 213 -209 520zM385 717q0 -213 137 -359q139 -152 350 -151q212 -1 349 149q135 143 135 357v4q0 213 -137 360 q-139 150 -351 150q-211 0 -348 -148q-135 -145 -135 -358v-4zM506 1573l248 276h233l248 -276h-209l-158 119l-157 -119h-205z" />
<glyph unicode="&#xd5;" horiz-adv-x="1740" d="M121 713v4q0 307 211 522q215 219 540 219q326 0 539 -217q209 -213 209 -520v-4q0 -307 -211 -522q-215 -219 -541 -220q-325 1 -538 218q-209 213 -209 520zM385 717q0 -213 137 -359q139 -152 350 -151q212 -1 349 149q135 143 135 357v4q0 213 -137 360 q-139 150 -351 150q-211 0 -348 -148q-135 -145 -135 -358v-4zM487 1595q68 252 230 252q61 0 166 -39q104 -41 135 -41q70 0 112 99l140 -41q-72 -252 -230 -252q-61 0 -166 41q-104 39 -135 39q-70 0 -114 -101z" />
<glyph unicode="&#xd6;" horiz-adv-x="1740" d="M121 713v4q0 307 211 522q215 219 540 219q326 0 539 -217q209 -213 209 -520v-4q0 -307 -211 -522q-215 -219 -541 -220q-325 1 -538 218q-209 213 -209 520zM385 717q0 -213 137 -359q139 -152 350 -151q212 -1 349 149q135 143 135 357v4q0 213 -137 360 q-139 150 -351 150q-211 0 -348 -148q-135 -145 -135 -358v-4zM532 1573v229h256v-229h-256zM954 1573v229h254v-229h-254z" />
<glyph unicode="&#xd7;" horiz-adv-x="1298" d="M160 385l340 334l-340 334l157 157l334 -340l334 340l154 -153l-340 -334l340 -334l-158 -158l-334 340l-334 -340z" />
<glyph unicode="&#xd8;" horiz-adv-x="1740" d="M104 -10l203 227q-186 205 -186 496v4q0 307 211 522q215 219 540 219q233 0 418 -123l99 109h247l-202 -230q186 -203 186 -493v-4q0 -307 -211 -522q-215 -219 -541 -220q-233 0 -417 123l-99 -108h-248zM381 717q0 -174 94 -305l655 737q-115 82 -262 82 q-211 0 -350 -150q-137 -147 -137 -360v-4zM610 285q115 -82 262 -82q212 -1 351 149q137 147 137 361v4q0 174 -94 305z" />
<glyph unicode="&#xd9;" horiz-adv-x="1550" d="M162 608v826h252v-816q0 -197 96 -305q96 -104 266 -104t264 100q96 104 97 299v826h252v-813q0 -313 -168 -482q-160 -162 -449 -162q-284 0 -444 160q-166 164 -166 471zM422 1749l223 98l232 -297h-195z" />
<glyph unicode="&#xda;" horiz-adv-x="1550" d="M162 608v826h252v-816q0 -197 96 -305q96 -104 266 -104t264 100q96 104 97 299v826h252v-813q0 -313 -168 -482q-160 -162 -449 -162q-284 0 -444 160q-166 164 -166 471zM674 1550l229 297l225 -98l-262 -199h-192z" />
<glyph unicode="&#xdb;" horiz-adv-x="1550" d="M162 608v826h252v-816q0 -197 96 -305q96 -104 266 -104t264 100q96 104 97 299v826h252v-813q0 -313 -168 -482q-160 -162 -449 -162q-284 0 -444 160q-166 164 -166 471zM410 1550l247 277h234l248 -277h-209l-158 119l-158 -119h-204z" />
<glyph unicode="&#xdc;" horiz-adv-x="1550" d="M162 608v826h252v-816q0 -197 96 -305q96 -104 266 -104t264 100q96 104 97 299v826h252v-813q0 -313 -168 -482q-160 -162 -449 -162q-284 0 -444 160q-166 164 -166 471zM436 1550v230h256v-230h-256zM858 1550v230h254v-230h-254z" />
<glyph unicode="&#xdd;" horiz-adv-x="1466" d="M37 1434h297l401 -635l406 635h289l-570 -863v-571h-254v565zM631 1550l229 297l225 -98l-262 -199h-192z" />
<glyph unicode="&#xde;" horiz-adv-x="1378" d="M184 0v1434h252v-224h314q250 0 397 -131t147 -348v-4q0 -231 -168 -365q-158 -125 -405 -124h-285v-238h-252zM436 465h293q141 0 225 72t84 184v4q0 123 -84 190q-82 66 -225 66h-293v-516z" />
<glyph unicode="&#xdf;" horiz-adv-x="1269" d="M156 0v1028q0 223 131 352t356 129q203 0 326 -112q115 -106 114 -273v-4q0 -225 -225 -350q311 -104 311 -364v-5q0 -197 -151 -305q-152 -109 -412 -100v190q315 10 316 222v4q0 195 -316 233v168q231 113 232 285v4q0 88 -58 143q-55 53 -149 53q-102 0 -166 -71 q-63 -72 -64 -191v-1036h-245z" />
<glyph unicode="&#xe0;" horiz-adv-x="1202" d="M82 311v4q0 174 125 267q117 88 313 88q158 0 299 -45v20q0 231 -266 232q-147 0 -309 -68l-68 199q201 90 412 90q475 0 475 -457v-641h-246v133q-131 -156 -350 -156q-162 0 -268 86q-117 92 -117 248zM262 1454l225 100l213 -335h-186zM328 324q0 -74 61 -119 q57 -41 148 -41q125 0 204 63q82 63 82 164v62q-111 43 -248 43q-248 0 -247 -168v-4z" />
<glyph unicode="&#xe1;" horiz-adv-x="1202" d="M82 311v4q0 174 125 267q117 88 313 88q158 0 299 -45v20q0 231 -266 232q-147 0 -309 -68l-68 199q201 90 412 90q475 0 475 -457v-641h-246v133q-131 -156 -350 -156q-162 0 -268 86q-117 92 -117 248zM328 324q0 -74 61 -119q57 -41 148 -41q125 0 204 63 q82 63 82 164v62q-111 43 -248 43q-248 0 -247 -168v-4zM504 1219l213 335l225 -100l-252 -235h-186z" />
<glyph unicode="&#xe2;" horiz-adv-x="1202" d="M82 311v4q0 174 125 267q117 88 313 88q158 0 299 -45v20q0 231 -266 232q-147 0 -309 -68l-68 199q201 90 412 90q475 0 475 -457v-641h-246v133q-131 -156 -350 -156q-162 0 -268 86q-117 92 -117 248zM250 1219l237 301h230l239 -301h-196l-160 137l-158 -137h-192z M328 324q0 -74 61 -119q57 -41 148 -41q125 0 204 63q82 63 82 164v62q-111 43 -248 43q-248 0 -247 -168v-4z" />
<glyph unicode="&#xe3;" horiz-adv-x="1202" d="M82 311v4q0 174 125 267q117 88 313 88q158 0 299 -45v20q0 231 -266 232q-147 0 -309 -68l-68 199q201 90 412 90q475 0 475 -457v-641h-246v133q-131 -156 -350 -156q-162 0 -268 86q-117 92 -117 248zM225 1241q70 254 230 254q61 0 161 -41t134 -41q68 0 112 103 l137 -41q-70 -256 -229 -256q-61 0 -162 41q-100 41 -133 40q-68 0 -113 -102zM328 324q0 -74 61 -119q57 -41 148 -41q125 0 204 63q82 63 82 164v62q-111 43 -248 43q-248 0 -247 -168v-4z" />
<glyph unicode="&#xe4;" horiz-adv-x="1202" d="M82 311v4q0 174 125 267q117 88 313 88q158 0 299 -45v20q0 231 -266 232q-147 0 -309 -68l-68 199q201 90 412 90q475 0 475 -457v-641h-246v133q-131 -156 -350 -156q-162 0 -268 86q-117 92 -117 248zM276 1219v243h252v-243h-252zM328 324q0 -74 61 -119 q57 -41 148 -41q125 0 204 63q82 63 82 164v62q-111 43 -248 43q-248 0 -247 -168v-4zM676 1219v243h252v-243h-252z" />
<glyph unicode="&#xe5;" horiz-adv-x="1202" d="M82 311v4q0 174 125 267q117 88 313 88q158 0 299 -45v20q0 231 -266 232q-147 0 -309 -68l-68 199q201 90 412 90q475 0 475 -457v-641h-246v133q-131 -156 -350 -156q-162 0 -268 86q-117 92 -117 248zM328 324q0 -74 61 -119q57 -41 148 -41q125 0 204 63 q82 63 82 164v62q-111 43 -248 43q-248 0 -247 -168v-4zM365 1444q-1 94 69 162t168 67q98 0 168 -67q70 -68 70 -162t-70 -162t-168 -68t-168 68t-69 162zM465 1444q0 -57 41 -96q39 -41 96 -41t96 41q41 39 41 96t-41 96q-39 41 -96 41t-96 -41q-41 -39 -41 -96z" />
<glyph unicode="&#xe6;" horiz-adv-x="1949" d="M82 311v4q0 174 125 267q115 88 309 88q156 0 297 -45v20q0 231 -264 232q-143 0 -305 -68l-68 199q201 90 408 90q276 0 379 -178q141 184 378 184q242 0 383 -174q129 -160 129 -408q0 -45 -2 -69h-794q20 -129 106 -203q82 -72 203 -72q162 0 295 129l145 -129 q-172 -203 -444 -203q-260 0 -418 185q-219 -182 -452 -183q-176 0 -289 86q-121 90 -121 248zM328 324q0 -74 59 -119q57 -41 145 -41q170 0 320 139q-31 78 -39 156q-104 37 -242 37q-115 0 -178 -45q-66 -45 -65 -123v-4zM1053 616h557q-12 125 -82 203q-74 82 -193 82 q-113 0 -190 -80q-76 -78 -92 -205z" />
<glyph unicode="&#xe7;" horiz-adv-x="1169" d="M96 535v4q0 233 160 397q162 168 401 168q262 0 433 -186l-154 -166q-129 135 -281 135q-133 0 -223 -101q-88 -100 -88 -243v-4q0 -147 90 -246q92 -102 234 -103q150 0 280 136l150 -148q-168 -188 -398 -201l-135 -317l-217 92l164 242q-186 45 -301 196 q-115 150 -115 345z" />
<glyph unicode="&#xe8;" horiz-adv-x="1236" d="M96 537v4q0 236 148 397q152 166 381 166q246 0 389 -174q129 -160 129 -408q0 -20 -4 -69h-795q20 -129 107 -203q82 -72 204 -72q160 0 293 129l146 -129q-168 -203 -443 -203q-237 0 -395 156q-160 158 -160 406zM281 1454l225 100l213 -335h-187zM342 616h555 q-12 125 -82 203q-74 82 -192 82q-113 0 -189 -80q-76 -78 -92 -205z" />
<glyph unicode="&#xe9;" horiz-adv-x="1236" d="M96 537v4q0 236 148 397q152 166 381 166q246 0 389 -174q129 -160 129 -408q0 -20 -4 -69h-795q20 -129 107 -203q82 -72 204 -72q160 0 293 129l146 -129q-168 -203 -443 -203q-237 0 -395 156q-160 158 -160 406zM342 616h555q-12 125 -82 203q-74 82 -192 82 q-113 0 -189 -80q-76 -78 -92 -205zM522 1219l213 335l226 -100l-252 -235h-187z" />
<glyph unicode="&#xea;" horiz-adv-x="1236" d="M96 537v4q0 236 148 397q152 166 381 166q246 0 389 -174q129 -160 129 -408q0 -20 -4 -69h-795q20 -129 107 -203q82 -72 204 -72q160 0 293 129l146 -129q-168 -203 -443 -203q-237 0 -395 156q-160 158 -160 406zM268 1219l238 301h229l240 -301h-197l-160 137 l-157 -137h-193zM342 616h555q-12 125 -82 203q-74 82 -192 82q-113 0 -189 -80q-76 -78 -92 -205z" />
<glyph unicode="&#xeb;" horiz-adv-x="1236" d="M96 537v4q0 236 148 397q152 166 381 166q246 0 389 -174q129 -160 129 -408q0 -20 -4 -69h-795q20 -129 107 -203q82 -72 204 -72q160 0 293 129l146 -129q-168 -203 -443 -203q-237 0 -395 156q-160 158 -160 406zM295 1219v243h252v-243h-252zM342 616h555 q-12 125 -82 203q-74 82 -192 82q-113 0 -189 -80q-76 -78 -92 -205zM694 1219v243h252v-243h-252z" />
<glyph unicode="&#xec;" horiz-adv-x="585" d="M-47 1454l225 100l213 -335h-186zM170 0v1081h248v-1081h-248z" />
<glyph unicode="&#xed;" horiz-adv-x="585" d="M170 0v1081h248v-1081h-248zM195 1219l213 335l225 -100l-252 -235h-186z" />
<glyph unicode="&#xee;" horiz-adv-x="585" d="M-59 1219l237 301h230l239 -301h-196l-160 137l-158 -137h-192zM170 0v1081h248v-1081h-248z" />
<glyph unicode="&#xef;" horiz-adv-x="585" d="M-33 1219v243h252v-243h-252zM170 0v1081h248v-1081h-248zM367 1219v243h251v-243h-251z" />
<glyph unicode="&#xf0;" horiz-adv-x="1345" d="M96 549v4q0 223 146 377q143 150 346 149q154 0 299 -102q-76 129 -217 264l-248 -76l-49 138l172 53q-102 86 -180 139h335l80 -68l234 72l49 -135l-160 -51q344 -348 344 -721v-4q0 -262 -155 -434q-162 -178 -424 -179q-244 0 -408 166q-164 164 -164 408zM344 535 q0 -141 92 -242q96 -100 238 -100q145 0 237 100q90 94 90 239v5q0 143 -94 241t-241 99q-145 0 -236 -99q-86 -94 -86 -239v-4z" />
<glyph unicode="&#xf1;" horiz-adv-x="1269" d="M156 0v1081h247v-168q129 190 338 191q180 0 285 -113q100 -113 100 -303v-688h-247v614q0 264 -232 265q-109 0 -176 -72q-68 -72 -68 -197v-610h-247zM260 1241q70 254 229 254q61 0 162 -41q100 -41 133 -41q68 0 113 103l137 -41q-70 -256 -229 -256q-61 0 -162 41 q-100 41 -133 40q-68 0 -113 -102z" />
<glyph unicode="&#xf2;" horiz-adv-x="1345" d="M96 535v4q0 236 164 399q168 166 414 166t411 -164q164 -164 164 -397v-4q0 -233 -164 -398q-168 -166 -415 -166q-246 0 -410 164q-164 162 -164 396zM332 1454l225 100l213 -335h-186zM344 539q0 -143 92 -244q96 -104 238 -105q147 1 239 103q88 98 88 242v4 q0 145 -92 245q-96 102 -239 103q-145 0 -238 -101q-88 -98 -88 -243v-4z" />
<glyph unicode="&#xf3;" horiz-adv-x="1345" d="M96 535v4q0 236 164 399q168 166 414 166t411 -164q164 -164 164 -397v-4q0 -233 -164 -398q-168 -166 -415 -166q-246 0 -410 164q-164 162 -164 396zM344 539q0 -143 92 -244q96 -104 238 -105q147 1 239 103q88 98 88 242v4q0 145 -92 245q-96 102 -239 103 q-145 0 -238 -101q-88 -98 -88 -243v-4zM573 1219l213 335l226 -100l-252 -235h-187z" />
<glyph unicode="&#xf4;" horiz-adv-x="1345" d="M96 535v4q0 236 164 399q168 166 414 166t411 -164q164 -164 164 -397v-4q0 -233 -164 -398q-168 -166 -415 -166q-246 0 -410 164q-164 162 -164 396zM319 1219l238 301h229l240 -301h-197l-159 137l-158 -137h-193zM344 539q0 -143 92 -244q96 -104 238 -105 q147 1 239 103q88 98 88 242v4q0 145 -92 245q-96 102 -239 103q-145 0 -238 -101q-88 -98 -88 -243v-4z" />
<glyph unicode="&#xf5;" horiz-adv-x="1345" d="M96 535v4q0 236 164 399q168 166 414 166t411 -164q164 -164 164 -397v-4q0 -233 -164 -398q-168 -166 -415 -166q-246 0 -410 164q-164 162 -164 396zM293 1241q70 254 229 254q61 0 162 -41q100 -41 133 -41q68 0 113 103l137 -41q-70 -256 -229 -256q-61 0 -162 41 q-100 41 -133 40q-68 0 -113 -102zM344 539q0 -143 92 -244q96 -104 238 -105q147 1 239 103q88 98 88 242v4q0 145 -92 245q-96 102 -239 103q-145 0 -238 -101q-88 -98 -88 -243v-4z" />
<glyph unicode="&#xf6;" horiz-adv-x="1345" d="M96 535v4q0 236 164 399q168 166 414 166t411 -164q164 -164 164 -397v-4q0 -233 -164 -398q-168 -166 -415 -166q-246 0 -410 164q-164 162 -164 396zM344 539q0 -143 92 -244q96 -104 238 -105q147 1 239 103q88 98 88 242v4q0 145 -92 245q-96 102 -239 103 q-145 0 -238 -101q-88 -98 -88 -243v-4zM346 1219v243h252v-243h-252zM745 1219v243h252v-243h-252z" />
<glyph unicode="&#xf7;" horiz-adv-x="1298" d="M139 614v213h1020v-213h-1020zM512 164v262h274v-262h-274zM512 1018v260h274v-260h-274z" />
<glyph unicode="&#xf8;" horiz-adv-x="1345" d="M66 -10l163 182q-133 156 -133 363v4q0 236 164 399q168 166 414 166q172 0 309 -88l72 78h225l-166 -187q135 -152 135 -364v-4q0 -233 -164 -398q-168 -166 -415 -166q-171 0 -310 88l-69 -73h-225zM338 539q0 -102 51 -187l447 492q-76 49 -166 49q-147 0 -242 -105 q-90 -98 -90 -245v-4zM508 233q72 -47 166 -47q150 1 244 105q90 98 90 244v4q0 100 -52 188z" />
<glyph unicode="&#xf9;" horiz-adv-x="1269" d="M143 393v688h248v-614q0 -264 232 -264q109 0 176 71q68 72 67 197v610h248v-1081h-248v168q-129 -190 -338 -191q-180 0 -284 113q-100 113 -101 303zM287 1454l225 100l213 -335h-186z" />
<glyph unicode="&#xfa;" horiz-adv-x="1269" d="M143 393v688h248v-614q0 -264 232 -264q109 0 176 71q68 72 67 197v610h248v-1081h-248v168q-129 -190 -338 -191q-180 0 -284 113q-100 113 -101 303zM528 1219l213 335l226 -100l-252 -235h-187z" />
<glyph unicode="&#xfb;" horiz-adv-x="1269" d="M143 393v688h248v-614q0 -264 232 -264q109 0 176 71q68 72 67 197v610h248v-1081h-248v168q-129 -190 -338 -191q-180 0 -284 113q-100 113 -101 303zM274 1219l238 301h229l240 -301h-197l-159 137l-158 -137h-193z" />
<glyph unicode="&#xfc;" horiz-adv-x="1269" d="M143 393v688h248v-614q0 -264 232 -264q109 0 176 71q68 72 67 197v610h248v-1081h-248v168q-129 -190 -338 -191q-180 0 -284 113q-100 113 -101 303zM301 1219v243h252v-243h-252zM700 1219v243h252v-243h-252z" />
<glyph unicode="&#xfd;" horiz-adv-x="1220" d="M53 1081h264l308 -802l280 802h258l-430 -1112q-66 -166 -145 -233q-80 -70 -211 -70q-135 0 -256 66l84 184q76 -41 145 -41q98 0 154 125zM512 1219l213 335l225 -100l-252 -235h-186z" />
<glyph unicode="&#xfe;" horiz-adv-x="1374" d="M156 -328v1823h247v-594q143 203 367 203q205 0 348 -146q156 -160 156 -415v-4q0 -256 -156 -416q-141 -145 -346 -146q-225 0 -369 191v-496h-247zM397 539q0 -152 95 -252q92 -94 221 -94q131 0 219 94q90 96 90 252v4q0 154 -92 252q-88 94 -217 94t-221 -96 q-94 -98 -95 -250v-4z" />
<glyph unicode="&#xff;" horiz-adv-x="1220" d="M53 1081h264l308 -802l280 802h258l-430 -1112q-66 -166 -145 -233q-80 -70 -211 -70q-135 0 -256 66l84 184q76 -41 145 -41q98 0 154 125zM285 1219v243h252v-243h-252zM684 1219v243h252v-243h-252z" />
<glyph unicode="&#x152;" horiz-adv-x="2248" d="M121 713v4q0 307 213 510q215 207 549 207h1241v-226h-766v-372h674v-226h-674v-385h776v-225h-1251q-334 0 -549 205q-213 203 -213 508zM385 717q0 -213 135 -348q139 -139 363 -140h223v975h-223q-223 0 -363 -137q-135 -133 -135 -346v-4z" />
<glyph unicode="&#x153;" horiz-adv-x="2129" d="M96 535v4q0 233 166 399t406 166q279 0 432 -223q150 223 418 223q246 0 387 -174q129 -160 129 -408q0 -20 -4 -69h-795q20 -129 106 -203q84 -72 205 -72q162 0 295 129l146 -129q-172 -203 -443 -203q-291 0 -446 228q-156 -227 -441 -228q-233 0 -397 164t-164 396z M344 539q0 -143 92 -244q92 -104 232 -105q141 1 233 103q86 98 86 242v4q0 145 -90 245q-94 102 -233 103q-141 0 -234 -103q-86 -98 -86 -241v-4zM1233 616h557q-14 127 -82 203q-74 82 -192 82q-113 0 -191 -80q-76 -78 -92 -205z" />
<glyph unicode="&#x178;" horiz-adv-x="1466" d="M37 1434h297l401 -635l406 635h289l-570 -863v-571h-254v565zM395 1550v230h256v-230h-256zM817 1550v230h254v-230h-254z" />
<glyph unicode="&#x2c6;" horiz-adv-x="1024" d="M160 1219l237 301h230l239 -301h-196l-160 137l-158 -137h-192z" />
<glyph unicode="&#x2dc;" horiz-adv-x="1024" d="M125 1241q70 254 229 254q61 0 162 -41q100 -41 133 -41q68 0 113 103l137 -41q-70 -256 -229 -256q-61 0 -162 41q-100 41 -133 40q-68 0 -113 -102z" />
<glyph unicode="&#x2000;" horiz-adv-x="935" />
<glyph unicode="&#x2001;" horiz-adv-x="1870" />
<glyph unicode="&#x2002;" horiz-adv-x="935" />
<glyph unicode="&#x2003;" horiz-adv-x="1870" />
<glyph unicode="&#x2004;" horiz-adv-x="623" />
<glyph unicode="&#x2005;" horiz-adv-x="467" />
<glyph unicode="&#x2006;" horiz-adv-x="311" />
<glyph unicode="&#x2007;" horiz-adv-x="311" />
<glyph unicode="&#x2008;" horiz-adv-x="233" />
<glyph unicode="&#x2009;" horiz-adv-x="374" />
<glyph unicode="&#x200a;" horiz-adv-x="103" />
<glyph unicode="&#x2010;" horiz-adv-x="835" d="M115 506v244h606v-244h-606z" />
<glyph unicode="&#x2011;" horiz-adv-x="835" d="M115 506v244h606v-244h-606z" />
<glyph unicode="&#x2012;" horiz-adv-x="835" d="M115 506v244h606v-244h-606z" />
<glyph unicode="&#x2013;" horiz-adv-x="1081" d="M115 510v235h852v-235h-852z" />
<glyph unicode="&#x2014;" horiz-adv-x="1839" d="M115 510v235h1609v-235h-1609z" />
<glyph unicode="&#x2018;" horiz-adv-x="550" d="M129 864v240q0 315 315 340l27 -107q-188 -35 -174 -190h104v-283h-272z" />
<glyph unicode="&#x2019;" horiz-adv-x="550" d="M80 961q188 35 174 192h-104v281h272v-240q0 -315 -316 -340z" />
<glyph unicode="&#x201a;" horiz-adv-x="550" d="M70 -193q188 37 174 193h-105v281h273v-238q0 -315 -316 -340z" />
<glyph unicode="&#x201c;" horiz-adv-x="1026" d="M129 864v240q0 315 315 340l27 -107q-188 -35 -174 -190h104v-283h-272zM604 864v240q0 315 316 340l26 -107q-188 -35 -176 -190h107v-283h-273z" />
<glyph unicode="&#x201d;" horiz-adv-x="1026" d="M80 961q188 35 174 192h-104v281h272v-240q0 -315 -316 -340zM555 961q188 35 174 192h-104v281h272v-240q0 -315 -315 -340z" />
<glyph unicode="&#x201e;" horiz-adv-x="1026" d="M70 -193q188 37 174 193h-105v281h273v-238q0 -315 -316 -340zM545 -193q188 37 174 193h-105v281h273v-238q0 -315 -316 -340z" />
<glyph unicode="&#x2022;" horiz-adv-x="1005" d="M213 719v4q0 119 86 203t203 84q119 0 205 -84t86 -203v-4q0 -119 -86 -203q-84 -84 -205 -84q-119 0 -203 84q-86 84 -86 203z" />
<glyph unicode="&#x2026;" horiz-adv-x="1622" d="M139 0v274h267v-274h-267zM678 0v274h266v-274h-266zM1217 0v274h266v-274h-266z" />
<glyph unicode="&#x202f;" horiz-adv-x="374" />
<glyph unicode="&#x2039;" horiz-adv-x="724" d="M90 532v17l340 450l188 -96l-270 -360l270 -363l-188 -96z" />
<glyph unicode="&#x203a;" horiz-adv-x="724" d="M109 178l270 361l-270 362l188 98l338 -450v-17l-338 -448z" />
<glyph unicode="&#x205f;" horiz-adv-x="467" />
<glyph unicode="&#x20ac;" horiz-adv-x="1474" d="M106 461v174h158q-2 27 -2 78v4q0 63 4 92h-160v174h193q63 213 213 342q158 133 369 133q311 0 499 -270l-190 -141q-135 186 -316 186q-221 0 -315 -250h440v-174h-479q-4 -53 -4 -88v-4q0 -29 4 -82h479v-174h-442q90 -260 334 -260q164 0 313 194l180 -131 q-199 -289 -495 -289q-223 1 -383 136q-154 129 -213 350h-187z" />
<glyph unicode="&#x2122;" horiz-adv-x="1413" d="M53 1323v111h510v-111h-194v-520h-121v520h-195zM698 803v631h129l191 -299l190 299h125v-631h-116v448l-195 -303h-12l-195 303v-448h-117z" />
<glyph unicode="&#xe000;" horiz-adv-x="1085" d="M0 0v1085h1085v-1085h-1085z" />
</font>
</defs>
</svg>
